<svg id="Layer_1" data-name="Layer 1" xmlns="http://www.w3.org/2000/svg" viewBox="0 0 1034 1277.01"><defs><style>.cls-1,.cls-3,.cls-4{fill:#fff;}.cls-1,.cls-2{stroke:#000;stroke-miterlimit:10;}.cls-4{font-size:53px;font-family:VinerHandITC, Viner Hand ITC;letter-spacing:0.01em;}</style></defs><path d="M255.3,22.51c-6.1,12.8-11.4,23.3-12,23.5s-11.6-9.8-24.7-22.2-24.2-22.2-24.6-22-2,14-3.6,30.6-3.3,30.8-3.9,31.5c-.8,1.1-4.3.4-18.5-4.1-25-7.9-27.2-8.5-26.8-7.6.2.5,23.5,26.1,51.8,57s51.6,56.5,51.8,57-3.2,4.6-7.4,9.2c-46,50.1-71.6,112.8-74,180.9-1.6,43.1,6.3,83.7,24.2,124.5,2.4,5.4,4.1,10.2,3.6,10.5s-4,1.2-8,1.8c-43.1,7-73.4,60.6-110.6,195.2C54.5,754,43.5,802.41,38.4,838.81c-2.2,16.4-3.1,59.5-1.2,64.9,1.6,4.8,6.3,8.2,25.9,18.6,7.5,4,15.3,8.7,17.4,10.5,3.3,2.7,3.7,3.5,3.1,5.9-1.3,5.3-13.1,16.2-39.6,36.6-29.1,22.5-44,35.9-44,39.7,0,.7,1.1,2,2.5,2.9,5.5,3.6,16.6-.3,48.5-16.9,33.9-17.7,44.9-22.4,49.6-21.3,1.9.5,2.4,1.3,2.4,4,0,7-5.9,19.2-23.7,49.4-15.9,26.9-21.4,37.8-22,43.4l-.5,4.6,3.8,1.1c6.5,1.8,22.2,1.3,31-.9,29.6-7.5,64.9-37.7,93.6-80,4-5.8,7.6-10.8,8.2-11.2s6.1,4.3,12.5,10.4,17.2,15.7,24.3,21.5c12.4,10.1,12.9,10.7,12.4,13.7-.3,1.7-7.8,44.7-16.6,95.6s-17.4,99.9-19,108.9-2.8,16.6-2.7,16.8,27.6-18.2,60.9-40.7,61.3-41,62.1-41c1,0,13.8,19.6,33.4,51,17.5,28,32.1,50.9,32.5,50.7s18.3-22.8,39.9-50.5c23.6-30.3,39.7-50.2,40.6-50s7.6,14.5,15.4,32.3c27.9,63.6,30.1,68.5,30.9,68,.4-.3,19.1-23.2,41.5-51s41.4-50.5,42.1-50.5c1.2,0,67.2,61.2,91.1,84.4,3.4,3.3,6.5,5.7,6.8,5.5s-10.1-52.8-23-116.7-23.5-116.6-23.5-117.1,4.6-4.7,10.3-9.3,16.4-14.3,23.9-21.6,14.2-13.1,14.7-12.7,4.7,5.9,9,12.3c29.6,43.6,64.6,73.6,94.5,81.2,8.8,2.2,24.5,2.7,31,.9l3.8-1.1-.5-4.6c-.6-5.7-6.1-16.5-22.2-43.8-15.2-25.6-22.6-40.8-23.3-47.3-.4-4.7-.3-5,2.1-5.6,4.8-1.3,15.5,3.3,49.7,21.2,31.9,16.6,43,20.5,48.5,16.9,1.4-.9,2.5-2.2,2.5-2.9,0-3.8-14.9-17.2-44-39.7-26.5-20.4-38.3-31.3-39.6-36.6-.6-2.4-.2-3.2,3.1-5.9,2-1.8,10.7-6.9,19.2-11.5,20.1-10.9,23-13,24.4-18.3,1.6-6,.6-48.9-1.5-64.2-5.4-38.6-17.7-92.2-37.2-161.3-27.8-98.5-50.9-148.4-79.4-171.3-10-8-24.4-13.9-34.1-13.9-1.6,0-3.2-.6-3.5-1.3s1.2-4.9,3.2-9.3a290.56,290.56,0,0,0,23.5-86.4c1.6-14.8,1.6-44.3,0-59a282.84,282.84,0,0,0-70.8-158.7c-4.6-5-8.3-9.8-8.3-10.5s23.8-13.6,53-28.7,53.7-27.9,54.6-28.6c1.9-1.3-4.2-2-30.1-3-17.1-.7-20.5-1.2-20.5-2.9,0-.8,5.1-14.9,11.4-31.5,9.1-24,11.1-30.1,9.8-30.1-1,0-14.5,4-30.2,8.9s-29,8.6-29.6,8.4c-1.3-.5-1.7-2.9-4-28.6-.9-10.3-2-18.4-2.4-18s-12.9,27.1-27.6,59.2-27.4,58.5-28,58.8-5-2.1-9.9-5.2c-48.7-30.5-109.3-45.9-167.7-42.4-28.3,1.7-49.2,5.7-75.3,14.3A271.25,271.25,0,0,0,290.7,130c-5.4,3.6-10.4,6.3-11,6-.9-.3-1.7-5.9-2.5-16.8-.7-9-2.6-32.2-4.2-51.4s-3.4-42.2-4.1-51S267.4.51,267,0,261.4,9.71,255.3,22.51Z" transform="translate(0 0)"/><ellipse class="cls-1" cx="344.32" cy="337.23" rx="91.5" ry="112"/><ellipse class="cls-1" cx="527.32" cy="337.23" rx="91.5" ry="112"/><ellipse class="cls-2" cx="537.82" cy="380.74" rx="34.75" ry="54.24"/><ellipse class="cls-2" cx="344.32" cy="380.74" rx="34.75" ry="54.24"/><path class="cls-3" d="M469,463c-5.26,32.24-33.16,51.67-33.16,51.67s-25.07-20.44-31.28-43.1C393.67,431.82,417.23,420,433.71,420S474.83,427.05,469,463Z" transform="translate(0 0)"/><text class="cls-4" transform="translate(191.57 717.63) scale(0.72 1)">&lt;work with shadow souls.../&gt;</text><text/><text/></svg>