<svg id="Layer_1" data-name="Layer 1" xmlns="http://www.w3.org/2000/svg" viewBox="0 0 1247.44 580.98"><defs><style>.cls-1{fill:#fff;}</style></defs><path d="M278.88,29.71c-24.47,3.83-52.34,22.7-98.54,66.57-23.3,22.31-29.93,27.39-40.84,31.51-5.46,2.1-7.51,2.3-30.22,2.68-13.35.19-37.91-.1-54.39-.67-28.26-1.06-30.31-1.06-33.62.57-4,1.92-5.75,5.37-4.68,9.2,1,4.12,4.19,6.13,12.18,7.85,18.81,4.12,34.21,11.11,66,29.88,27.68,16.38,34.6,20,46.2,24,15,5.17,29.92,5.93,48.73,2.49,10.53-1.92,18.23-4.6,33.14-11.4,7.22-3.35,15.31-6.61,17.84-7.28,4.39-1.06,4.78-1,7.12,1.15,6.53,6,17.83,34.86,25.73,65.8,3.21,12.45,4.38,15.42,6.53,17.33a6.07,6.07,0,0,0,6,1.63c5.56-.86,7-3.16,8.38-12.74q3.51-24.55,14.33-31.6c3.7-2.4,4.87-2.69,12.38-2.59,9.36.1,19,2.3,43.76,10,17.35,5.46,43.18,14.37,44.35,15.33.49.38-.1,5.36-1.17,11.11-4.48,23.65-5.16,47.31-2.05,81.79,6.05,69.25,17.06,129.88,31.29,171.93,5.17,15.51,13.65,33.23,18.52,39.07,5.95,7,14.82,9.29,22.13,5.56a128.58,128.58,0,0,0,13.16-9.67c5.36-4.31,9.94-7.48,10.33-7.09s3.8,8.81,7.5,18.58c7.21,19.15,10.24,23.85,16.67,26,4.78,1.53,11.5.57,15.3-2.11,1.76-1.25,12.77-12.74,24.47-25.58s21.63-22.89,22-22.5,9.56,15.42,20.38,33.33c19.78,32.75,22.61,36.87,27.48,39.36,5.65,2.88,16,.87,20.57-4.21,1-1,8.57-16.86,16.86-35.25s15.3-33.52,15.4-33.62,5.26,10.83,11.4,24.33c7.12,15.71,12.19,25.48,14,27.39,7.21,7.19,18.23,7.28,25,.1,1.36-1.53,9.65-14.46,18.32-28.64s15.89-25.95,16.08-26.15,7.22,5.56,15.79,12.55,17,13.31,18.82,13.89c7.4,2.59,14.91.29,20.37-6.23,8.18-9.67,19-37,26.41-66.56,14.82-59.1,26.9-162.06,23.39-200.47-1-11.2-3.89-30.26-5.45-35.53-.49-1.82.58-2.4,11-6.13,32.55-11.69,66.67-21.07,76.71-21.07,9.45,0,15.69,4.69,20.47,15.51,2.82,6.42,4.19,11.88,5.06,20.31.78,7.76,3,10.92,8.29,11.68a6.07,6.07,0,0,0,6-1.63c2.15-1.91,3.32-5.17,6.92-19.06,7.8-29.78,19-58.33,25.34-64.07,2.34-2.11,2.73-2.21,7.12-1.15,2.53.67,10.62,3.93,17.84,7.28,14.91,6.8,22.61,9.48,33.14,11.4,18.81,3.44,33.72,2.68,48.73-2.49,11.6-4,18.52-7.67,46.2-24,31.78-18.77,47.18-25.76,66-29.88,8-1.72,11.21-3.73,12.18-7.85,1.07-3.83-.68-7.28-4.68-9.2-3.31-1.63-5.36-1.63-33.62-.57-16.48.57-40.94.86-54.39.67-22.71-.38-24.76-.58-30.22-2.68-10.91-4.12-17.35-9.1-40.84-31.42-42.1-40-66.47-57.56-89.28-64.46-10.23-3.06-28-3.16-36.45-.09-10.53,3.83-18.33,8.81-27.49,17.81-17.25,16.95-28.36,36.11-46.2,79.59-8.87,21.84-15.69,35.15-23.78,47.13C870,185.73,857,201.54,855.6,201.54c-.39,0-2.83-4-5.55-8.91A238.28,238.28,0,0,0,699.55,76.45c-24-6.13-54.58-8.53-80-6.13A237.78,237.78,0,0,0,432.88,192.05c-3,5.46-5.85,10.35-6.24,10.73-.88.86-8.38-7-15.11-15.51-12.77-16.38-20.47-30.37-31.77-58.05-18-44-30.41-65.13-47.47-80.93-13.55-12.64-25.63-18.1-41.23-18.68A115.91,115.91,0,0,0,278.88,29.71Z" transform="translate(-16.28 -29.51)"/><ellipse class="cls-1" cx="552.14" cy="224.24" rx="51.35" ry="54.22"/><ellipse class="cls-1" cx="689.07" cy="224.24" rx="51.35" ry="54.22"/><ellipse cx="552.14" cy="224.24" rx="25.67" ry="27.11"/><ellipse cx="689.07" cy="224.24" rx="25.67" ry="27.11"/><path class="cls-1" d="M662.94,352.84c-4.13,24.61-26,39.44-26,39.44s-19.68-15.6-24.56-32.9c-8.54-30.32,10-39.38,22.9-39.38S667.54,325.42,662.94,352.84Z" transform="translate(-16.28 -29.51)"/></svg>