<svg id="Layer_1" data-name="Layer 1" xmlns="http://www.w3.org/2000/svg" viewBox="0 0 1245 1181"><defs><style>.cls-1{fill:#fff;}</style></defs><path d="M597.28,24.91C394,38.83,214.05,143.12,106.62,309.29c-12,18.43-35,62-43.58,82C37.52,451.59,23.6,508.6,18.47,574c-3.29,43.09,2.32,290.59,8.67,380.63,2.57,35.07,5.13,49.32,13.55,74.88q42.86,129.3,193.14,167.3c16.73,4.19,21.73,4.19,29.55,0,15-7.92,31.74-29.3,60.43-77,27.59-45.81,32.72-53.84,44.68-70.7,34.55-48.64,57.63-58.59,87.42-37.78,15,10.41,31.49,29.52,57.74,66.63,8.67,12.1,22,31,29.67,41.85,68.73,97.39,102.55,107.8,156.39,48.07,13.18-14.59,22.71-27.14,52.74-69.68,32.84-46.49,48.1-65.83,62.39-78.61,15.62-14.14,24.78-18.67,38.09-18.67,18.68-.11,39.31,17.31,65.31,55.21,4.64,6.9,19.29,30.2,32.48,51.92s28.56,45.92,34.18,53.84c12.45,17.42,25.15,30.2,34.43,34.39,5.86,2.71,7.45,2.94,14.77,2.26,15.75-1.36,43.71-8.83,64.1-17.2q106-43.26,147.23-176.34c5.62-18.1,7-29.3,9.89-85.41,5.25-101.8,9-310,6.23-345-6.35-80-26.5-151.35-61.9-219.33-34.43-66.06-74.72-118-130.63-168.65C952.18,80.91,798,22.76,636.71,23.78,622.8,23.9,605,24.46,597.28,24.91Z" transform="translate(-17.5 -23.77)"/><ellipse class="cls-1" cx="363.07" cy="417.5" rx="193.51" ry="177.77"/><ellipse cx="366.99" cy="420.15" rx="98.95" ry="90.64"/><ellipse class="cls-1" cx="366.99" cy="420.15" rx="61.64" ry="56.47"/><ellipse class="cls-1" cx="832.99" cy="414.87" rx="188.62" ry="176.13"/><ellipse cx="836.82" cy="417.5" rx="96.46" ry="89.81"/><ellipse class="cls-1" cx="836.82" cy="417.5" rx="60.09" ry="55.95"/><path class="cls-1" d="M724.72,741c-14.49,83.61-91.46,134-91.46,134S564.12,822,547,763.21c-30-103,35-133.79,80.44-133.79S740.87,647.82,724.72,741Z" transform="translate(-17.5 -23.77)"/></svg>